<svg width="147" height="130" viewBox="0 0 147 130" fill="none" xmlns="http://www.w3.org/2000/svg">
<g filter="url(#filter0_d_246_20)">
<g filter="url(#filter1_d_246_20)">
<rect x="4" width="139" height="122" rx="6" fill="white"/>
<rect x="4.25" y="0.25" width="138.5" height="121.5" rx="5.75" stroke="#A1A1A1" stroke-width="0.5"/>
</g>
<path d="M4 6C4 2.68629 6.68629 0 10 0H137C140.314 0 143 2.68629 143 6V26H4V6Z" fill="#515151"/>
<path d="M15.8599 18.126C14.5906 18.126 13.5779 17.8367 12.8219 17.258C12.0753 16.67 11.6366 15.844 11.5059 14.78H13.2559C13.3399 15.396 13.6153 15.8767 14.0819 16.222C14.5486 16.558 15.1599 16.726 15.9159 16.726C16.5413 16.726 17.0173 16.614 17.3439 16.39C17.6799 16.1567 17.8479 15.8347 17.8479 15.424C17.8479 15.06 17.7453 14.766 17.5399 14.542C17.3346 14.318 16.9893 14.136 16.5039 13.996L14.6839 13.45C13.7599 13.17 13.0786 12.8013 12.6399 12.344C12.2106 11.8867 11.9959 11.3127 11.9959 10.622C11.9959 10.0433 12.1453 9.53933 12.4439 9.11C12.7426 8.68067 13.1626 8.34933 13.7039 8.116C14.2546 7.88267 14.8939 7.766 15.6219 7.766C16.7419 7.766 17.6333 8.04133 18.2959 8.592C18.9679 9.13333 19.3506 9.87067 19.4439 10.804H17.6939C17.5913 10.244 17.3579 9.83333 16.9939 9.572C16.6299 9.30133 16.1399 9.166 15.5239 9.166C14.9826 9.166 14.5533 9.27333 14.2359 9.488C13.9186 9.70267 13.7599 9.99667 13.7599 10.37C13.7599 10.678 13.8533 10.9393 14.0399 11.154C14.2359 11.3687 14.5953 11.5553 15.1179 11.714L16.9659 12.274C17.8899 12.5447 18.5619 12.9133 18.9819 13.38C19.4019 13.8467 19.6119 14.4393 19.6119 15.158C19.6119 16.11 19.2806 16.8427 18.6179 17.356C17.9646 17.8693 17.0453 18.126 15.8599 18.126ZM24.103 18.14C23.2257 18.14 22.577 17.9347 22.157 17.524C21.7463 17.104 21.541 16.4787 21.541 15.648V9.236L23.319 8.578V15.69C23.319 16.0353 23.4123 16.292 23.599 16.46C23.7857 16.628 24.0797 16.712 24.481 16.712C24.6397 16.712 24.7797 16.7027 24.901 16.684C25.0317 16.656 25.153 16.6233 25.265 16.586V17.958C25.153 18.014 24.9943 18.056 24.789 18.084C24.5837 18.1213 24.355 18.14 24.103 18.14ZM20.169 12.246V10.86H25.265V12.246H20.169ZM26.5845 18V10.86H28.3065V12.582H28.3485V18H26.5845ZM28.3485 14.276L28.1665 12.582C28.3345 11.9753 28.6192 11.5133 29.0205 11.196C29.4218 10.8787 29.9025 10.72 30.4625 10.72C30.6585 10.72 30.7985 10.7387 30.8825 10.776V12.442C30.8358 12.4233 30.7705 12.414 30.6865 12.414C30.6025 12.4047 30.4998 12.4 30.3785 12.4C29.6972 12.4 29.1885 12.5493 28.8525 12.848C28.5165 13.1467 28.3485 13.6227 28.3485 14.276ZM35.2192 18.14C34.4632 18.14 33.7959 17.9813 33.2172 17.664C32.6479 17.3467 32.2045 16.908 31.8872 16.348C31.5699 15.7787 31.4112 15.13 31.4112 14.402C31.4112 13.674 31.5699 13.0347 31.8872 12.484C32.2045 11.9333 32.6479 11.504 33.2172 11.196C33.7959 10.8787 34.4632 10.72 35.2192 10.72C35.9845 10.72 36.6519 10.8787 37.2212 11.196C37.7905 11.504 38.2339 11.9333 38.5512 12.484C38.8685 13.0347 39.0272 13.674 39.0272 14.402C39.0272 15.13 38.8639 15.7787 38.5372 16.348C38.2199 16.908 37.7765 17.3467 37.2072 17.664C36.6379 17.9813 35.9752 18.14 35.2192 18.14ZM35.2192 16.726C35.5925 16.726 35.9285 16.6327 36.2272 16.446C36.5259 16.25 36.7592 15.9793 36.9272 15.634C37.0952 15.2793 37.1792 14.864 37.1792 14.388C37.1792 13.688 36.9925 13.1373 36.6192 12.736C36.2552 12.3347 35.7885 12.134 35.2192 12.134C34.6499 12.134 34.1785 12.3347 33.8052 12.736C33.4319 13.1373 33.2452 13.688 33.2452 14.388C33.2452 14.864 33.3292 15.2793 33.4972 15.634C33.6745 15.9793 33.9079 16.25 34.1972 16.446C34.4959 16.6327 34.8365 16.726 35.2192 16.726ZM40.3247 18V10.86H42.0467V12.54H42.0887V18H40.3247ZM45.3367 18V13.492C45.3367 13.0533 45.2247 12.722 45.0007 12.498C44.7767 12.274 44.4501 12.162 44.0207 12.162C43.6474 12.162 43.3114 12.246 43.0127 12.414C42.7234 12.582 42.4947 12.8153 42.3267 13.114C42.1681 13.4127 42.0887 13.758 42.0887 14.15L41.9067 12.442C42.1494 11.9193 42.5041 11.504 42.9707 11.196C43.4374 10.8787 43.9974 10.72 44.6507 10.72C45.4254 10.72 46.0274 10.9393 46.4567 11.378C46.8954 11.8167 47.1147 12.4 47.1147 13.128V18H45.3367ZM52.0193 21.01C51.0766 21.01 50.302 20.8047 49.6953 20.394C49.098 19.9833 48.7433 19.428 48.6313 18.728H50.3113C50.3953 18.9707 50.5773 19.1573 50.8573 19.288C51.1466 19.428 51.52 19.498 51.9773 19.498C52.64 19.498 53.13 19.3487 53.4473 19.05C53.7646 18.7607 53.9233 18.3173 53.9233 17.72V16.18L54.0493 16.208C53.9373 16.7307 53.6526 17.1507 53.1953 17.468C52.738 17.776 52.178 17.93 51.5153 17.93C50.8806 17.93 50.3253 17.7807 49.8493 17.482C49.3826 17.1833 49.0186 16.768 48.7573 16.236C48.496 15.6947 48.3653 15.0647 48.3653 14.346C48.3653 13.618 48.5006 12.9833 48.7713 12.442C49.042 11.9007 49.42 11.4807 49.9053 11.182C50.4 10.874 50.974 10.72 51.6273 10.72C52.2993 10.72 52.85 10.8833 53.2793 11.21C53.718 11.5273 53.9886 11.9707 54.0913 12.54L53.9793 12.554V10.86H55.7013V17.706C55.7013 18.7233 55.37 19.526 54.7073 20.114C54.054 20.7113 53.158 21.01 52.0193 21.01ZM52.0893 16.53C52.6586 16.53 53.1113 16.3387 53.4473 15.956C53.7926 15.564 53.9653 15.018 53.9653 14.318C53.9653 13.618 53.7926 13.0767 53.4473 12.694C53.102 12.3113 52.6446 12.12 52.0753 12.12C51.5153 12.12 51.0626 12.316 50.7173 12.708C50.372 13.0907 50.1993 13.632 50.1993 14.332C50.1993 15.032 50.372 15.5733 50.7173 15.956C51.0626 16.3387 51.52 16.53 52.0893 16.53ZM60.2157 18V7.92H62.0357V18H60.2157ZM61.0837 18V16.558H67.4677V18H61.0837ZM61.0837 13.52V12.106H66.9777V13.52H61.0837ZM61.0837 9.362V7.92H67.3137V9.362H61.0837ZM69.104 18V10.86H70.826V12.54H70.868V18H69.104ZM74.116 18V13.492C74.116 13.0533 74.004 12.722 73.78 12.498C73.556 12.274 73.2293 12.162 72.8 12.162C72.4267 12.162 72.0907 12.246 71.792 12.414C71.5027 12.582 71.274 12.8153 71.106 13.114C70.9473 13.4127 70.868 13.758 70.868 14.15L70.686 12.442C70.9287 11.9193 71.2833 11.504 71.75 11.196C72.2167 10.8787 72.7767 10.72 73.43 10.72C74.2047 10.72 74.8067 10.9393 75.236 11.378C75.6747 11.8167 75.894 12.4 75.894 13.128V18H74.116ZM80.6225 18.14C79.7452 18.14 79.0965 17.9347 78.6765 17.524C78.2658 17.104 78.0605 16.4787 78.0605 15.648V9.236L79.8385 8.578V15.69C79.8385 16.0353 79.9318 16.292 80.1185 16.46C80.3052 16.628 80.5992 16.712 81.0005 16.712C81.1592 16.712 81.2992 16.7027 81.4205 16.684C81.5512 16.656 81.6725 16.6233 81.7845 16.586V17.958C81.6725 18.014 81.5138 18.056 81.3085 18.084C81.1032 18.1213 80.8745 18.14 80.6225 18.14ZM76.6885 12.246V10.86H81.7845V12.246H76.6885ZM83.063 18V10.86H84.827V18H83.063ZM82.979 9.684V7.738H84.897V9.684H82.979ZM89.8237 18.14C88.9464 18.14 88.2977 17.9347 87.8777 17.524C87.467 17.104 87.2617 16.4787 87.2617 15.648V9.236L89.0397 8.578V15.69C89.0397 16.0353 89.133 16.292 89.3197 16.46C89.5064 16.628 89.8004 16.712 90.2017 16.712C90.3604 16.712 90.5004 16.7027 90.6217 16.684C90.7524 16.656 90.8737 16.6233 90.9857 16.586V17.958C90.8737 18.014 90.715 18.056 90.5097 18.084C90.3044 18.1213 90.0757 18.14 89.8237 18.14ZM85.8897 12.246V10.86H90.9857V12.246H85.8897ZM92.7942 20.87L94.6422 16.726L94.9642 16.194L96.9802 10.86H98.8562L94.5862 20.87H92.7942ZM94.3762 17.93L91.4782 10.86H93.3962L95.8182 17.272L94.3762 17.93Z" fill="white"/>
<rect x="11" y="38" width="75" height="13" rx="6" fill="#E2E2E2"/>
<rect x="11" y="56" width="88" height="13" rx="6" fill="#E2E2E2"/>
<rect x="11" y="92" width="100" height="13" rx="6" fill="#E2E2E2"/>
<rect x="11" y="74" width="80" height="13" rx="6" fill="#E2E2E2"/>
</g>
<defs>
<filter id="filter0_d_246_20" x="0" y="0" width="147" height="130" filterUnits="userSpaceOnUse" color-interpolation-filters="sRGB">
<feFlood flood-opacity="0" result="BackgroundImageFix"/>
<feColorMatrix in="SourceAlpha" type="matrix" values="0 0 0 0 0 0 0 0 0 0 0 0 0 0 0 0 0 0 127 0" result="hardAlpha"/>
<feOffset dy="4"/>
<feGaussianBlur stdDeviation="2"/>
<feComposite in2="hardAlpha" operator="out"/>
<feColorMatrix type="matrix" values="0 0 0 0 0 0 0 0 0 0 0 0 0 0 0 0 0 0 0.25 0"/>
<feBlend mode="normal" in2="BackgroundImageFix" result="effect1_dropShadow_246_20"/>
<feBlend mode="normal" in="SourceGraphic" in2="effect1_dropShadow_246_20" result="shape"/>
</filter>
<filter id="filter1_d_246_20" x="0" y="0" width="147" height="130" filterUnits="userSpaceOnUse" color-interpolation-filters="sRGB">
<feFlood flood-opacity="0" result="BackgroundImageFix"/>
<feColorMatrix in="SourceAlpha" type="matrix" values="0 0 0 0 0 0 0 0 0 0 0 0 0 0 0 0 0 0 127 0" result="hardAlpha"/>
<feOffset dy="4"/>
<feGaussianBlur stdDeviation="2"/>
<feComposite in2="hardAlpha" operator="out"/>
<feColorMatrix type="matrix" values="0 0 0 0 0 0 0 0 0 0 0 0 0 0 0 0 0 0 0.25 0"/>
<feBlend mode="normal" in2="BackgroundImageFix" result="effect1_dropShadow_246_20"/>
<feBlend mode="normal" in="SourceGraphic" in2="effect1_dropShadow_246_20" result="shape"/>
</filter>
</defs>
</svg>
