<svg width="129" height="113" viewBox="0 0 129 113" fill="none" xmlns="http://www.w3.org/2000/svg">
<g filter="url(#filter0_d_246_91)">
<path d="M60.5896 3.59473C62.6307 1.89053 65.5993 1.89053 67.6404 3.59473L121.756 48.7783C124.388 50.9769 124.388 55.0231 121.756 57.2217L67.6404 102.405C65.5993 104.109 62.6307 104.109 60.5896 102.405L6.47534 57.2217C3.84207 55.023 3.84207 50.977 6.47534 48.7783L60.5896 3.59473Z" fill="white" stroke="#A1A1A1"/>
<path d="M48.9295 50.099C47.9321 50.099 47.1365 49.8717 46.5425 49.417C45.9558 48.955 45.6111 48.306 45.5085 47.47H46.8835C46.9495 47.954 47.1658 48.3317 47.5325 48.603C47.8991 48.867 48.3795 48.999 48.9735 48.999C49.4648 48.999 49.8388 48.911 50.0955 48.735C50.3595 48.5517 50.4915 48.2987 50.4915 47.976C50.4915 47.69 50.4108 47.459 50.2495 47.283C50.0881 47.107 49.8168 46.964 49.4355 46.854L48.0055 46.425C47.2795 46.205 46.7441 45.9153 46.3995 45.556C46.0621 45.1967 45.8935 44.7457 45.8935 44.203C45.8935 43.7483 46.0108 43.3523 46.2455 43.015C46.4801 42.6777 46.8101 42.4173 47.2355 42.234C47.6681 42.0507 48.1705 41.959 48.7425 41.959C49.6225 41.959 50.3228 42.1753 50.8435 42.608C51.3715 43.0333 51.6721 43.6127 51.7455 44.346H50.3705C50.2898 43.906 50.1065 43.5833 49.8205 43.378C49.5345 43.1653 49.1495 43.059 48.6655 43.059C48.2401 43.059 47.9028 43.1433 47.6535 43.312C47.4041 43.4807 47.2795 43.7117 47.2795 44.005C47.2795 44.247 47.3528 44.4523 47.4995 44.621C47.6535 44.7897 47.9358 44.9363 48.3465 45.061L49.7985 45.501C50.5245 45.7137 51.0525 46.0033 51.3825 46.37C51.7125 46.7367 51.8775 47.2023 51.8775 47.767C51.8775 48.515 51.6171 49.0907 51.0965 49.494C50.5831 49.8973 49.8608 50.099 48.9295 50.099ZM55.4061 50.11C54.7168 50.11 54.2071 49.9487 53.8771 49.626C53.5545 49.296 53.3931 48.8047 53.3931 48.152V43.114L54.7901 42.597V48.185C54.7901 48.4563 54.8635 48.658 55.0101 48.79C55.1568 48.922 55.3878 48.988 55.7031 48.988C55.8278 48.988 55.9378 48.9807 56.0331 48.966C56.1358 48.944 56.2311 48.9183 56.3191 48.889V49.967C56.2311 50.011 56.1065 50.044 55.9451 50.066C55.7838 50.0953 55.6041 50.11 55.4061 50.11ZM52.3151 45.479V44.39H56.3191V45.479H52.3151ZM57.3559 50V44.39H58.7089V45.743H58.7419V50H57.3559ZM58.7419 47.074L58.5989 45.743C58.7309 45.2663 58.9546 44.9033 59.2699 44.654C59.5852 44.4047 59.9629 44.28 60.4029 44.28C60.5569 44.28 60.6669 44.2947 60.7329 44.324V45.633C60.6962 45.6183 60.6449 45.611 60.5789 45.611C60.5129 45.6037 60.4322 45.6 60.3369 45.6C59.8016 45.6 59.4019 45.7173 59.1379 45.952C58.8739 46.1867 58.7419 46.5607 58.7419 47.074ZM64.1403 50.11C63.5463 50.11 63.022 49.9853 62.5673 49.736C62.12 49.4867 61.7717 49.142 61.5223 48.702C61.273 48.2547 61.1483 47.745 61.1483 47.173C61.1483 46.601 61.273 46.0987 61.5223 45.666C61.7717 45.2333 62.12 44.896 62.5673 44.654C63.022 44.4047 63.5463 44.28 64.1403 44.28C64.7417 44.28 65.266 44.4047 65.7133 44.654C66.1607 44.896 66.509 45.2333 66.7583 45.666C67.0077 46.0987 67.1323 46.601 67.1323 47.173C67.1323 47.745 67.004 48.2547 66.7473 48.702C66.498 49.142 66.1497 49.4867 65.7023 49.736C65.255 49.9853 64.7343 50.11 64.1403 50.11ZM64.1403 48.999C64.4337 48.999 64.6977 48.9257 64.9323 48.779C65.167 48.625 65.3503 48.4123 65.4823 48.141C65.6143 47.8623 65.6803 47.536 65.6803 47.162C65.6803 46.612 65.5337 46.1793 65.2403 45.864C64.9543 45.5487 64.5877 45.391 64.1403 45.391C63.693 45.391 63.3227 45.5487 63.0293 45.864C62.736 46.1793 62.5893 46.612 62.5893 47.162C62.5893 47.536 62.6553 47.8623 62.7873 48.141C62.9267 48.4123 63.11 48.625 63.3373 48.779C63.572 48.9257 63.8397 48.999 64.1403 48.999ZM68.1518 50V44.39H69.5048V45.71H69.5378V50H68.1518ZM72.0898 50V46.458C72.0898 46.1133 72.0018 45.853 71.8258 45.677C71.6498 45.501 71.3931 45.413 71.0558 45.413C70.7625 45.413 70.4985 45.479 70.2638 45.611C70.0365 45.743 69.8568 45.9263 69.7248 46.161C69.6001 46.3957 69.5378 46.667 69.5378 46.975L69.3948 45.633C69.5855 45.2223 69.8641 44.896 70.2308 44.654C70.5975 44.4047 71.0375 44.28 71.5508 44.28C72.1595 44.28 72.6325 44.4523 72.9698 44.797C73.3145 45.1417 73.4868 45.6 73.4868 46.172V50H72.0898ZM77.3404 52.365C76.5997 52.365 75.9911 52.2037 75.5144 51.881C75.0451 51.5583 74.7664 51.122 74.6784 50.572H75.9984C76.0644 50.7627 76.2074 50.9093 76.4274 51.012C76.6547 51.122 76.9481 51.177 77.3074 51.177C77.8281 51.177 78.2131 51.0597 78.4624 50.825C78.7117 50.5977 78.8364 50.2493 78.8364 49.78V48.57L78.9354 48.592C78.8474 49.0027 78.6237 49.3327 78.2644 49.582C77.9051 49.824 77.4651 49.945 76.9444 49.945C76.4457 49.945 76.0094 49.8277 75.6354 49.593C75.2687 49.3583 74.9827 49.032 74.7774 48.614C74.5721 48.1887 74.4694 47.6937 74.4694 47.129C74.4694 46.557 74.5757 46.0583 74.7884 45.633C75.0011 45.2077 75.2981 44.8777 75.6794 44.643C76.0681 44.401 76.5191 44.28 77.0324 44.28C77.5604 44.28 77.9931 44.4083 78.3304 44.665C78.6751 44.9143 78.8877 45.2627 78.9684 45.71L78.8804 45.721V44.39H80.2334V49.769C80.2334 50.5683 79.9731 51.199 79.4524 51.661C78.9391 52.1303 78.2351 52.365 77.3404 52.365ZM77.3954 48.845C77.8427 48.845 78.1984 48.6947 78.4624 48.394C78.7337 48.086 78.8694 47.657 78.8694 47.107C78.8694 46.557 78.7337 46.1317 78.4624 45.831C78.1911 45.5303 77.8317 45.38 77.3844 45.38C76.9444 45.38 76.5887 45.534 76.3174 45.842C76.0461 46.1427 75.9104 46.568 75.9104 47.118C75.9104 47.668 76.0461 48.0933 76.3174 48.394C76.5887 48.6947 76.9481 48.845 77.3954 48.845ZM32.6307 63V55.08H35.9747C36.5394 55.08 37.0307 55.1753 37.4487 55.366C37.8667 55.5567 38.1857 55.8243 38.4057 56.169C38.633 56.5137 38.7467 56.917 38.7467 57.379C38.7467 57.8337 38.633 58.2333 38.4057 58.578C38.1857 58.9227 37.8667 59.1903 37.4487 59.381C37.0307 59.5717 36.5394 59.667 35.9747 59.667H33.7527V58.578H35.9307C36.3927 58.578 36.7447 58.4717 36.9867 58.259C37.236 58.0463 37.3607 57.753 37.3607 57.379C37.3607 57.005 37.2397 56.719 36.9977 56.521C36.7557 56.3157 36.4 56.213 35.9307 56.213H34.0607V63H32.6307ZM37.1627 63L33.6317 58.952H35.2377L39.1427 63H37.1627ZM42.2094 63.11C41.6154 63.11 41.0947 62.9853 40.6474 62.736C40.2074 62.4867 39.8627 62.142 39.6134 61.702C39.3714 61.262 39.2504 60.756 39.2504 60.184C39.2504 59.612 39.3714 59.1097 39.6134 58.677C39.8627 58.237 40.2074 57.896 40.6474 57.654C41.0874 57.4047 41.6007 57.28 42.1874 57.28C42.7447 57.28 43.2287 57.3973 43.6394 57.632C44.05 57.8593 44.369 58.182 44.5964 58.6C44.8237 59.018 44.9374 59.5057 44.9374 60.063C44.9374 60.1657 44.9337 60.261 44.9264 60.349C44.919 60.437 44.908 60.525 44.8934 60.613H40.1084V59.645H43.8264L43.5404 59.909C43.5404 59.381 43.4194 58.985 43.1774 58.721C42.9354 58.457 42.598 58.325 42.1654 58.325C41.696 58.325 41.322 58.4863 41.0434 58.809C40.772 59.1317 40.6364 59.5973 40.6364 60.206C40.6364 60.8073 40.772 61.2693 41.0434 61.592C41.322 61.9073 41.7144 62.065 42.2204 62.065C42.5137 62.065 42.7704 62.01 42.9904 61.9C43.2104 61.79 43.3717 61.6213 43.4744 61.394H44.7834C44.6 61.922 44.2884 62.34 43.8484 62.648C43.4157 62.956 42.8694 63.11 42.2094 63.11ZM45.9745 63V55.08H47.3605V63H45.9745ZM52.33 63C52.2933 62.8533 52.264 62.692 52.242 62.516C52.2273 62.34 52.22 62.1273 52.22 61.878H52.176V59.216C52.176 58.9227 52.0916 58.7027 51.923 58.556C51.7616 58.402 51.5123 58.325 51.175 58.325C50.845 58.325 50.581 58.3873 50.383 58.512C50.1923 58.6293 50.075 58.8017 50.031 59.029H48.7C48.7586 58.5083 49.008 58.0867 49.448 57.764C49.888 57.4413 50.4783 57.28 51.219 57.28C51.989 57.28 52.572 57.456 52.968 57.808C53.364 58.1527 53.562 58.6623 53.562 59.337V61.878C53.562 62.054 53.573 62.2337 53.595 62.417C53.6243 62.6003 53.6646 62.7947 53.716 63H52.33ZM50.383 63.11C49.8183 63.11 49.3673 62.9707 49.03 62.692C48.7 62.406 48.535 62.0247 48.535 61.548C48.535 61.0347 48.722 60.6277 49.096 60.327C49.47 60.0263 49.998 59.8247 50.68 59.722L52.429 59.458V60.338L50.911 60.569C50.581 60.6203 50.3316 60.712 50.163 60.844C50.0016 60.976 49.921 61.1593 49.921 61.394C49.921 61.6067 49.998 61.7717 50.152 61.889C50.306 61.999 50.5186 62.054 50.79 62.054C51.186 62.054 51.516 61.955 51.78 61.757C52.044 61.559 52.176 61.317 52.176 61.031L52.33 61.878C52.1833 62.2813 51.9413 62.5893 51.604 62.802C51.274 63.0073 50.867 63.11 50.383 63.11ZM57.184 63.11C56.4946 63.11 55.985 62.9487 55.655 62.626C55.3323 62.296 55.171 61.8047 55.171 61.152V56.114L56.568 55.597V61.185C56.568 61.4563 56.6413 61.658 56.788 61.79C56.9346 61.922 57.1656 61.988 57.481 61.988C57.6056 61.988 57.7156 61.9807 57.811 61.966C57.9136 61.944 58.009 61.9183 58.097 61.889V62.967C58.009 63.011 57.8843 63.044 57.723 63.066C57.5616 63.0953 57.382 63.11 57.184 63.11ZM54.093 58.479V57.39H58.097V58.479H54.093ZM59.1015 63V57.39H60.4875V63H59.1015ZM59.0355 56.466V54.937H60.5425V56.466H59.0355ZM64.4894 63.11C63.8954 63.11 63.3711 62.9853 62.9164 62.736C62.4691 62.4867 62.1208 62.142 61.8714 61.702C61.6221 61.2547 61.4974 60.745 61.4974 60.173C61.4974 59.601 61.6221 59.0987 61.8714 58.666C62.1208 58.2333 62.4691 57.896 62.9164 57.654C63.3711 57.4047 63.8954 57.28 64.4894 57.28C65.0908 57.28 65.6151 57.4047 66.0624 57.654C66.5098 57.896 66.8581 58.2333 67.1074 58.666C67.3568 59.0987 67.4814 59.601 67.4814 60.173C67.4814 60.745 67.3531 61.2547 67.0964 61.702C66.8471 62.142 66.4988 62.4867 66.0514 62.736C65.6041 62.9853 65.0834 63.11 64.4894 63.11ZM64.4894 61.999C64.7828 61.999 65.0468 61.9257 65.2814 61.779C65.5161 61.625 65.6994 61.4123 65.8314 61.141C65.9634 60.8623 66.0294 60.536 66.0294 60.162C66.0294 59.612 65.8828 59.1793 65.5894 58.864C65.3034 58.5487 64.9368 58.391 64.4894 58.391C64.0421 58.391 63.6718 58.5487 63.3784 58.864C63.0851 59.1793 62.9384 59.612 62.9384 60.162C62.9384 60.536 63.0044 60.8623 63.1364 61.141C63.2758 61.4123 63.4591 61.625 63.6864 61.779C63.9211 61.9257 64.1888 61.999 64.4894 61.999ZM68.5009 63V57.39H69.8539V58.71H69.8869V63H68.5009ZM72.4389 63V59.458C72.4389 59.1133 72.3509 58.853 72.1749 58.677C71.9989 58.501 71.7422 58.413 71.4049 58.413C71.1116 58.413 70.8476 58.479 70.6129 58.611C70.3856 58.743 70.2059 58.9263 70.0739 59.161C69.9492 59.3957 69.8869 59.667 69.8869 59.975L69.7439 58.633C69.9346 58.2223 70.2132 57.896 70.5799 57.654C70.9466 57.4047 71.3866 57.28 71.8999 57.28C72.5086 57.28 72.9816 57.4523 73.3189 57.797C73.6636 58.1417 73.8359 58.6 73.8359 59.172V63H72.4389ZM77.3598 63.11C76.5824 63.11 75.9628 62.9487 75.5008 62.626C75.0388 62.296 74.7858 61.8413 74.7418 61.262H76.0068C76.0434 61.548 76.1791 61.7643 76.4138 61.911C76.6484 62.0577 76.9638 62.131 77.3598 62.131C77.7191 62.131 77.9868 62.076 78.1628 61.966C78.3461 61.8487 78.4378 61.6837 78.4378 61.471C78.4378 61.317 78.3865 61.1923 78.2838 61.097C78.1811 60.9943 77.9868 60.91 77.7008 60.844L76.7988 60.635C76.1828 60.503 75.7244 60.2977 75.4238 60.019C75.1304 59.733 74.9838 59.3773 74.9838 58.952C74.9838 58.4313 75.1818 58.0243 75.5778 57.731C75.9811 57.4303 76.5348 57.28 77.2388 57.28C77.9355 57.28 78.4928 57.4303 78.9108 57.731C79.3361 58.0243 79.5708 58.4313 79.6148 58.952H78.3498C78.3131 58.7247 78.1958 58.5523 77.9978 58.435C77.8071 58.3177 77.5431 58.259 77.2058 58.259C76.8905 58.259 76.6521 58.3103 76.4908 58.413C76.3295 58.5083 76.2488 58.6513 76.2488 58.842C76.2488 58.9887 76.3111 59.1133 76.4358 59.216C76.5604 59.3113 76.7694 59.3957 77.0628 59.469L78.0308 59.689C78.5808 59.8137 78.9951 60.03 79.2738 60.338C79.5598 60.646 79.7028 61.009 79.7028 61.427C79.7028 61.9623 79.4975 62.3767 79.0868 62.67C78.6761 62.9633 78.1004 63.11 77.3598 63.11ZM80.6503 63V55.08H82.0363V63H80.6503ZM84.5883 63V59.458C84.5883 59.1133 84.5003 58.853 84.3243 58.677C84.1483 58.501 83.8917 58.413 83.5543 58.413C83.261 58.413 82.997 58.479 82.7623 58.611C82.535 58.743 82.3553 58.9263 82.2233 59.161C82.0987 59.3957 82.0363 59.667 82.0363 59.975L81.8933 58.633C82.084 58.2223 82.3627 57.896 82.7293 57.654C83.096 57.4047 83.536 57.28 84.0493 57.28C84.658 57.28 85.131 57.4523 85.4683 57.797C85.813 58.1417 85.9853 58.6 85.9853 59.172V63H84.5883ZM87.3427 63V57.39H88.7287V63H87.3427ZM87.2767 56.466V54.937H88.7837V56.466H87.2767ZM93.4011 63.11C92.8658 63.11 92.4295 62.9853 92.0921 62.736C91.7621 62.4793 91.5568 62.1273 91.4761 61.68L91.5861 61.669V65.255H90.2001V57.39H91.5531V58.655L91.4431 58.633C91.5458 58.215 91.7805 57.885 92.1471 57.643C92.5138 57.401 92.9611 57.28 93.4891 57.28C93.9878 57.28 94.4205 57.401 94.7871 57.643C95.1611 57.8777 95.4508 58.2113 95.6561 58.644C95.8615 59.0767 95.9641 59.5863 95.9641 60.173C95.9641 60.767 95.8578 61.284 95.6451 61.724C95.4325 62.164 95.1355 62.505 94.7541 62.747C94.3728 62.989 93.9218 63.11 93.4011 63.11ZM93.0491 61.966C93.4965 61.966 93.8521 61.812 94.1161 61.504C94.3801 61.1887 94.5121 60.7487 94.5121 60.184C94.5121 59.6193 94.3765 59.183 94.1051 58.875C93.8411 58.567 93.4855 58.413 93.0381 58.413C92.5981 58.413 92.2425 58.5707 91.9711 58.886C91.6998 59.194 91.5641 59.6303 91.5641 60.195C91.5641 60.7597 91.6998 61.196 91.9711 61.504C92.2425 61.812 92.6018 61.966 93.0491 61.966Z" fill="#A1A1A1"/>
</g>
<defs>
<filter id="filter0_d_246_91" x="0" y="1.81653" width="128.23" height="110.367" filterUnits="userSpaceOnUse" color-interpolation-filters="sRGB">
<feFlood flood-opacity="0" result="BackgroundImageFix"/>
<feColorMatrix in="SourceAlpha" type="matrix" values="0 0 0 0 0 0 0 0 0 0 0 0 0 0 0 0 0 0 127 0" result="hardAlpha"/>
<feOffset dy="4"/>
<feGaussianBlur stdDeviation="2"/>
<feComposite in2="hardAlpha" operator="out"/>
<feColorMatrix type="matrix" values="0 0 0 0 0 0 0 0 0 0 0 0 0 0 0 0 0 0 0.25 0"/>
<feBlend mode="normal" in2="BackgroundImageFix" result="effect1_dropShadow_246_91"/>
<feBlend mode="normal" in="SourceGraphic" in2="effect1_dropShadow_246_91" result="shape"/>
</filter>
</defs>
</svg>
