<svg width="148" height="131" viewBox="0 0 148 131" fill="none" xmlns="http://www.w3.org/2000/svg">
<g filter="url(#filter0_d_246_43)">
<g filter="url(#filter1_d_246_43)">
<rect x="4.25" y="0.25" width="139.023" height="122" rx="6" fill="white"/>
<rect x="4.25" y="0.25" width="139.023" height="122" rx="6" stroke="#A1A1A1" stroke-width="0.5"/>
</g>
<rect x="8.28296" y="3.33716" width="130.957" height="114.88" rx="5.75" fill="white" stroke="#A1A1A1" stroke-width="0.5"/>
<path d="M8.03296 9.08715C8.03296 5.77344 10.7193 3.08716 14.033 3.08716H133.49C136.804 3.08716 139.49 5.77345 139.49 9.08716V27.6763H8.03296V9.08715Z" fill="#515151"/>
<path d="M18.6286 19.25L15.7306 9.17H17.5786L20.0426 18.424H19.5106L21.7926 9.17H23.8926L26.1466 18.424H25.6286L28.0926 9.17H29.8566L26.9586 19.25H24.8866L22.5906 10.206H23.0246L20.7006 19.25H18.6286ZM33.684 19.39C32.928 19.39 32.2654 19.2313 31.696 18.914C31.136 18.5967 30.6974 18.158 30.38 17.598C30.072 17.038 29.918 16.394 29.918 15.666C29.918 14.938 30.072 14.2987 30.38 13.748C30.6974 13.188 31.136 12.754 31.696 12.446C32.256 12.1287 32.9094 11.97 33.656 11.97C34.3654 11.97 34.9814 12.1193 35.504 12.418C36.0267 12.7073 36.4327 13.118 36.722 13.65C37.0114 14.182 37.156 14.8027 37.156 15.512C37.156 15.6427 37.1514 15.764 37.142 15.876C37.1327 15.988 37.1187 16.1 37.1 16.212H31.01V14.98H35.742L35.378 15.316C35.378 14.644 35.224 14.14 34.916 13.804C34.608 13.468 34.1787 13.3 33.628 13.3C33.0307 13.3 32.5547 13.5053 32.2 13.916C31.8547 14.3267 31.682 14.9193 31.682 15.694C31.682 16.4593 31.8547 17.0473 32.2 17.458C32.5547 17.8593 33.054 18.06 33.698 18.06C34.0714 18.06 34.398 17.99 34.678 17.85C34.958 17.71 35.1634 17.4953 35.294 17.206H36.96C36.7267 17.878 36.33 18.41 35.77 18.802C35.2194 19.194 34.524 19.39 33.684 19.39ZM42.8187 19.25C42.772 19.0633 42.7347 18.858 42.7067 18.634C42.688 18.41 42.6787 18.1393 42.6787 17.822H42.6227V14.434C42.6227 14.0607 42.5154 13.7807 42.3007 13.594C42.0954 13.398 41.778 13.3 41.3487 13.3C40.9287 13.3 40.5927 13.3793 40.3407 13.538C40.098 13.6873 39.9487 13.9067 39.8927 14.196H38.1987C38.2734 13.5333 38.5907 12.9967 39.1507 12.586C39.7107 12.1753 40.462 11.97 41.4047 11.97C42.3847 11.97 43.1267 12.194 43.6307 12.642C44.1347 13.0807 44.3867 13.7293 44.3867 14.588V17.822C44.3867 18.046 44.4007 18.2747 44.4287 18.508C44.466 18.7413 44.5174 18.9887 44.5827 19.25H42.8187ZM40.3407 19.39C39.622 19.39 39.048 19.2127 38.6187 18.858C38.1987 18.494 37.9887 18.0087 37.9887 17.402C37.9887 16.7487 38.2267 16.2307 38.7027 15.848C39.1787 15.4653 39.8507 15.2087 40.7187 15.078L42.9447 14.742V15.862L41.0127 16.156C40.5927 16.2213 40.2754 16.338 40.0607 16.506C39.8554 16.674 39.7527 16.9073 39.7527 17.206C39.7527 17.4767 39.8507 17.6867 40.0467 17.836C40.2427 17.976 40.5134 18.046 40.8587 18.046C41.3627 18.046 41.7827 17.92 42.1187 17.668C42.4547 17.416 42.6227 17.108 42.6227 16.744L42.8187 17.822C42.632 18.3353 42.324 18.7273 41.8947 18.998C41.4747 19.2593 40.9567 19.39 40.3407 19.39ZM46.1734 19.25V9.072H47.9374V19.25H46.1734ZM50.7794 19.25L47.5314 15.54L50.6814 12.11H52.8094L49.1694 15.862L49.2674 15.204L52.9494 19.25H50.7794ZM56.617 19.25V9.17H58.437V19.25H56.617ZM57.485 19.25V17.808H63.869V19.25H57.485ZM57.485 14.77V13.356H63.379V14.77H57.485ZM57.485 10.612V9.17H63.715V10.612H57.485ZM65.5054 19.25V12.11H67.2274V13.79H67.2694V19.25H65.5054ZM70.5174 19.25V14.742C70.5174 14.3033 70.4054 13.972 70.1814 13.748C69.9574 13.524 69.6307 13.412 69.2014 13.412C68.828 13.412 68.492 13.496 68.1934 13.664C67.904 13.832 67.6754 14.0653 67.5074 14.364C67.3487 14.6627 67.2694 15.008 67.2694 15.4L67.0874 13.692C67.33 13.1693 67.6847 12.754 68.1514 12.446C68.618 12.1287 69.178 11.97 69.8314 11.97C70.606 11.97 71.208 12.1893 71.6374 12.628C72.076 13.0667 72.2954 13.65 72.2954 14.378V19.25H70.5174ZM77.0239 19.39C76.1465 19.39 75.4979 19.1847 75.0779 18.774C74.6672 18.354 74.4619 17.7287 74.4619 16.898V10.486L76.2399 9.828V16.94C76.2399 17.2853 76.3332 17.542 76.5199 17.71C76.7065 17.878 77.0005 17.962 77.4019 17.962C77.5605 17.962 77.7005 17.9527 77.8219 17.934C77.9525 17.906 78.0739 17.8733 78.1859 17.836V19.208C78.0739 19.264 77.9152 19.306 77.7099 19.334C77.5045 19.3713 77.2759 19.39 77.0239 19.39ZM73.0899 13.496V12.11H78.1859V13.496H73.0899ZM79.4644 19.25V12.11H81.2284V19.25H79.4644ZM79.3804 10.934V8.988H81.2984V10.934H79.3804ZM86.2251 19.39C85.3477 19.39 84.6991 19.1847 84.2791 18.774C83.8684 18.354 83.6631 17.7287 83.6631 16.898V10.486L85.4411 9.828V16.94C85.4411 17.2853 85.5344 17.542 85.7211 17.71C85.9077 17.878 86.2017 17.962 86.6031 17.962C86.7617 17.962 86.9017 17.9527 87.0231 17.934C87.1537 17.906 87.2751 17.8733 87.3871 17.836V19.208C87.2751 19.264 87.1164 19.306 86.9111 19.334C86.7057 19.3713 86.4771 19.39 86.2251 19.39ZM82.2911 13.496V12.11H87.3871V13.496H82.2911ZM89.1956 22.12L91.0436 17.976L91.3656 17.444L93.3816 12.11H95.2576L90.9876 22.12H89.1956ZM90.7776 19.18L87.8796 12.11H89.7976L92.2196 18.522L90.7776 19.18Z" fill="white"/>
<rect x="14.6531" y="39.0251" width="70.9302" height="12.2946" rx="6" fill="#E2E2E2"/>
<rect x="14.653" y="56.0485" width="83.2248" height="12.2946" rx="6" fill="#E2E2E2"/>
<rect x="14.653" y="90.0948" width="94.5736" height="12.2946" rx="6" fill="#E2E2E2"/>
<rect x="14.653" y="73.0717" width="75.6589" height="12.2946" rx="6" fill="#E2E2E2"/>
</g>
<defs>
<filter id="filter0_d_246_43" x="0" y="0" width="147.523" height="130.5" filterUnits="userSpaceOnUse" color-interpolation-filters="sRGB">
<feFlood flood-opacity="0" result="BackgroundImageFix"/>
<feColorMatrix in="SourceAlpha" type="matrix" values="0 0 0 0 0 0 0 0 0 0 0 0 0 0 0 0 0 0 127 0" result="hardAlpha"/>
<feOffset dy="4"/>
<feGaussianBlur stdDeviation="2"/>
<feComposite in2="hardAlpha" operator="out"/>
<feColorMatrix type="matrix" values="0 0 0 0 0 0 0 0 0 0 0 0 0 0 0 0 0 0 0.25 0"/>
<feBlend mode="normal" in2="BackgroundImageFix" result="effect1_dropShadow_246_43"/>
<feBlend mode="normal" in="SourceGraphic" in2="effect1_dropShadow_246_43" result="shape"/>
</filter>
<filter id="filter1_d_246_43" x="0" y="0" width="147.523" height="130.5" filterUnits="userSpaceOnUse" color-interpolation-filters="sRGB">
<feFlood flood-opacity="0" result="BackgroundImageFix"/>
<feColorMatrix in="SourceAlpha" type="matrix" values="0 0 0 0 0 0 0 0 0 0 0 0 0 0 0 0 0 0 127 0" result="hardAlpha"/>
<feOffset dy="4"/>
<feGaussianBlur stdDeviation="2"/>
<feComposite in2="hardAlpha" operator="out"/>
<feColorMatrix type="matrix" values="0 0 0 0 0 0 0 0 0 0 0 0 0 0 0 0 0 0 0.25 0"/>
<feBlend mode="normal" in2="BackgroundImageFix" result="effect1_dropShadow_246_43"/>
<feBlend mode="normal" in="SourceGraphic" in2="effect1_dropShadow_246_43" result="shape"/>
</filter>
</defs>
</svg>
