<svg width="129" height="113" viewBox="0 0 129 113" fill="none" xmlns="http://www.w3.org/2000/svg">
<g filter="url(#filter0_d_246_86)">
<path d="M60.5896 3.59473C62.6307 1.89053 65.5993 1.89053 67.6404 3.59473L121.756 48.7783C124.388 50.9769 124.388 55.0231 121.756 57.2217L67.6404 102.405C65.5993 104.109 62.6307 104.109 60.5896 102.405L6.47534 57.2217C3.84207 55.023 3.84207 50.977 6.47534 48.7783L60.5896 3.59473Z" fill="white" stroke="#A1A1A1"/>
<path d="M59.9683 10.4528C61.9954 8.7922 64.913 8.79201 66.94 10.4528L113.675 48.7457C116.361 50.9462 116.361 55.0541 113.675 57.2545L66.94 95.5465C64.9129 97.2074 61.9954 97.2073 59.9683 95.5465L13.232 57.2545C10.5463 55.0541 10.5463 50.9462 13.232 48.7457L59.9683 10.4528Z" fill="white" stroke="#A1A1A1"/>
<path d="M52.9251 51L50.6481 43.08H52.1001L54.0361 50.351H53.6181L55.4111 43.08H57.0611L58.8321 50.351H58.4251L60.3611 43.08H61.7471L59.4701 51H57.8421L56.0381 43.894H56.3791L54.5531 51H52.9251ZM64.7544 51.11C64.1604 51.11 63.6397 50.9853 63.1924 50.736C62.7524 50.4867 62.4077 50.142 62.1584 49.702C61.9164 49.262 61.7954 48.756 61.7954 48.184C61.7954 47.612 61.9164 47.1097 62.1584 46.677C62.4077 46.237 62.7524 45.896 63.1924 45.654C63.6324 45.4047 64.1457 45.28 64.7324 45.28C65.2897 45.28 65.7737 45.3973 66.1844 45.632C66.5951 45.8593 66.9141 46.182 67.1414 46.6C67.3687 47.018 67.4824 47.5057 67.4824 48.063C67.4824 48.1657 67.4787 48.261 67.4714 48.349C67.4641 48.437 67.4531 48.525 67.4384 48.613H62.6534V47.645H66.3714L66.0854 47.909C66.0854 47.381 65.9644 46.985 65.7224 46.721C65.4804 46.457 65.1431 46.325 64.7104 46.325C64.2411 46.325 63.8671 46.4863 63.5884 46.809C63.3171 47.1317 63.1814 47.5973 63.1814 48.206C63.1814 48.8073 63.3171 49.2693 63.5884 49.592C63.8671 49.9073 64.2594 50.065 64.7654 50.065C65.0587 50.065 65.3154 50.01 65.5354 49.9C65.7554 49.79 65.9167 49.6213 66.0194 49.394H67.3284C67.1451 49.922 66.8334 50.34 66.3934 50.648C65.9607 50.956 65.4144 51.11 64.7544 51.11ZM71.9317 51C71.895 50.8533 71.8657 50.692 71.8437 50.516C71.829 50.34 71.8217 50.1273 71.8217 49.878H71.7777V47.216C71.7777 46.9227 71.6933 46.7027 71.5247 46.556C71.3633 46.402 71.114 46.325 70.7767 46.325C70.4467 46.325 70.1827 46.3873 69.9847 46.512C69.794 46.6293 69.6767 46.8017 69.6327 47.029H68.3017C68.3603 46.5083 68.6097 46.0867 69.0497 45.764C69.4897 45.4413 70.08 45.28 70.8207 45.28C71.5907 45.28 72.1737 45.456 72.5697 45.808C72.9657 46.1527 73.1637 46.6623 73.1637 47.337V49.878C73.1637 50.054 73.1747 50.2337 73.1967 50.417C73.226 50.6003 73.2663 50.7947 73.3177 51H71.9317ZM69.9847 51.11C69.42 51.11 68.969 50.9707 68.6317 50.692C68.3017 50.406 68.1367 50.0247 68.1367 49.548C68.1367 49.0347 68.3237 48.6277 68.6977 48.327C69.0717 48.0263 69.5997 47.8247 70.2817 47.722L72.0307 47.458V48.338L70.5127 48.569C70.1827 48.6203 69.9333 48.712 69.7647 48.844C69.6033 48.976 69.5227 49.1593 69.5227 49.394C69.5227 49.6067 69.5997 49.7717 69.7537 49.889C69.9077 49.999 70.1203 50.054 70.3917 50.054C70.7877 50.054 71.1177 49.955 71.3817 49.757C71.6457 49.559 71.7777 49.317 71.7777 49.031L71.9317 49.878C71.785 50.2813 71.543 50.5893 71.2057 50.802C70.8757 51.0073 70.4687 51.11 69.9847 51.11ZM74.5674 51V43.003H75.9534V51H74.5674ZM78.1864 51L75.6344 48.085L78.1094 45.39H79.7814L76.9214 48.338L76.9984 47.821L79.8914 51H78.1864ZM33.5839 64V56.08H36.9279C37.4926 56.08 37.9839 56.1753 38.4019 56.366C38.8199 56.5567 39.1389 56.8243 39.3589 57.169C39.5863 57.5137 39.6999 57.917 39.6999 58.379C39.6999 58.8337 39.5863 59.2333 39.3589 59.578C39.1389 59.9227 38.8199 60.1903 38.4019 60.381C37.9839 60.5717 37.4926 60.667 36.9279 60.667H34.7059V59.578H36.8839C37.3459 59.578 37.6979 59.4717 37.9399 59.259C38.1893 59.0463 38.3139 58.753 38.3139 58.379C38.3139 58.005 38.1929 57.719 37.9509 57.521C37.7089 57.3157 37.3533 57.213 36.8839 57.213H35.0139V64H33.5839ZM38.1159 64L34.5849 59.952H36.1909L40.0959 64H38.1159ZM43.1626 64.11C42.5686 64.11 42.0479 63.9853 41.6006 63.736C41.1606 63.4867 40.8159 63.142 40.5666 62.702C40.3246 62.262 40.2036 61.756 40.2036 61.184C40.2036 60.612 40.3246 60.1097 40.5666 59.677C40.8159 59.237 41.1606 58.896 41.6006 58.654C42.0406 58.4047 42.5539 58.28 43.1406 58.28C43.6979 58.28 44.1819 58.3973 44.5926 58.632C45.0033 58.8593 45.3223 59.182 45.5496 59.6C45.7769 60.018 45.8906 60.5057 45.8906 61.063C45.8906 61.1657 45.8869 61.261 45.8796 61.349C45.8723 61.437 45.8613 61.525 45.8466 61.613H41.0616V60.645H44.7796L44.4936 60.909C44.4936 60.381 44.3726 59.985 44.1306 59.721C43.8886 59.457 43.5513 59.325 43.1186 59.325C42.6493 59.325 42.2753 59.4863 41.9966 59.809C41.7253 60.1317 41.5896 60.5973 41.5896 61.206C41.5896 61.8073 41.7253 62.2693 41.9966 62.592C42.2753 62.9073 42.6676 63.065 43.1736 63.065C43.4669 63.065 43.7236 63.01 43.9436 62.9C44.1636 62.79 44.3249 62.6213 44.4276 62.394H45.7366C45.5533 62.922 45.2416 63.34 44.8016 63.648C44.3689 63.956 43.8226 64.11 43.1626 64.11ZM46.9278 64V56.08H48.3138V64H46.9278ZM53.2832 64C53.2466 63.8533 53.2172 63.692 53.1952 63.516C53.1806 63.34 53.1732 63.1273 53.1732 62.878H53.1292V60.216C53.1292 59.9227 53.0449 59.7027 52.8762 59.556C52.7149 59.402 52.4656 59.325 52.1282 59.325C51.7982 59.325 51.5342 59.3873 51.3362 59.512C51.1456 59.6293 51.0282 59.8017 50.9842 60.029H49.6532C49.7119 59.5083 49.9612 59.0867 50.4012 58.764C50.8412 58.4413 51.4316 58.28 52.1722 58.28C52.9422 58.28 53.5252 58.456 53.9212 58.808C54.3172 59.1527 54.5152 59.6623 54.5152 60.337V62.878C54.5152 63.054 54.5262 63.2337 54.5482 63.417C54.5776 63.6003 54.6179 63.7947 54.6692 64H53.2832ZM51.3362 64.11C50.7716 64.11 50.3206 63.9707 49.9832 63.692C49.6532 63.406 49.4882 63.0247 49.4882 62.548C49.4882 62.0347 49.6752 61.6277 50.0492 61.327C50.4232 61.0263 50.9512 60.8247 51.6332 60.722L53.3822 60.458V61.338L51.8642 61.569C51.5342 61.6203 51.2849 61.712 51.1162 61.844C50.9549 61.976 50.8742 62.1593 50.8742 62.394C50.8742 62.6067 50.9512 62.7717 51.1052 62.889C51.2592 62.999 51.4719 63.054 51.7432 63.054C52.1392 63.054 52.4692 62.955 52.7332 62.757C52.9972 62.559 53.1292 62.317 53.1292 62.031L53.2832 62.878C53.1366 63.2813 52.8946 63.5893 52.5572 63.802C52.2272 64.0073 51.8202 64.11 51.3362 64.11ZM58.1372 64.11C57.4479 64.11 56.9382 63.9487 56.6082 63.626C56.2856 63.296 56.1242 62.8047 56.1242 62.152V57.114L57.5212 56.597V62.185C57.5212 62.4563 57.5946 62.658 57.7412 62.79C57.8879 62.922 58.1189 62.988 58.4342 62.988C58.5589 62.988 58.6689 62.9807 58.7642 62.966C58.8669 62.944 58.9622 62.9183 59.0502 62.889V63.967C58.9622 64.011 58.8376 64.044 58.6762 64.066C58.5149 64.0953 58.3352 64.11 58.1372 64.11ZM55.0462 59.479V58.39H59.0502V59.479H55.0462ZM60.0547 64V58.39H61.4407V64H60.0547ZM59.9887 57.466V55.937H61.4957V57.466H59.9887ZM65.4427 64.11C64.8487 64.11 64.3244 63.9853 63.8697 63.736C63.4224 63.4867 63.074 63.142 62.8247 62.702C62.5754 62.2547 62.4507 61.745 62.4507 61.173C62.4507 60.601 62.5754 60.0987 62.8247 59.666C63.074 59.2333 63.4224 58.896 63.8697 58.654C64.3244 58.4047 64.8487 58.28 65.4427 58.28C66.044 58.28 66.5684 58.4047 67.0157 58.654C67.463 58.896 67.8114 59.2333 68.0607 59.666C68.31 60.0987 68.4347 60.601 68.4347 61.173C68.4347 61.745 68.3064 62.2547 68.0497 62.702C67.8004 63.142 67.452 63.4867 67.0047 63.736C66.5574 63.9853 66.0367 64.11 65.4427 64.11ZM65.4427 62.999C65.736 62.999 66 62.9257 66.2347 62.779C66.4694 62.625 66.6527 62.4123 66.7847 62.141C66.9167 61.8623 66.9827 61.536 66.9827 61.162C66.9827 60.612 66.836 60.1793 66.5427 59.864C66.2567 59.5487 65.89 59.391 65.4427 59.391C64.9954 59.391 64.625 59.5487 64.3317 59.864C64.0384 60.1793 63.8917 60.612 63.8917 61.162C63.8917 61.536 63.9577 61.8623 64.0897 62.141C64.229 62.4123 64.4124 62.625 64.6397 62.779C64.8744 62.9257 65.142 62.999 65.4427 62.999ZM69.4542 64V58.39H70.8072V59.71H70.8402V64H69.4542ZM73.3922 64V60.458C73.3922 60.1133 73.3042 59.853 73.1282 59.677C72.9522 59.501 72.6955 59.413 72.3582 59.413C72.0648 59.413 71.8008 59.479 71.5662 59.611C71.3388 59.743 71.1592 59.9263 71.0272 60.161C70.9025 60.3957 70.8402 60.667 70.8402 60.975L70.6972 59.633C70.8878 59.2223 71.1665 58.896 71.5332 58.654C71.8998 58.4047 72.3398 58.28 72.8532 58.28C73.4618 58.28 73.9348 58.4523 74.2722 58.797C74.6168 59.1417 74.7892 59.6 74.7892 60.172V64H73.3922ZM78.313 64.11C77.5357 64.11 76.916 63.9487 76.454 63.626C75.992 63.296 75.739 62.8413 75.695 62.262H76.96C76.9967 62.548 77.1324 62.7643 77.367 62.911C77.6017 63.0577 77.917 63.131 78.313 63.131C78.6724 63.131 78.94 63.076 79.116 62.966C79.2994 62.8487 79.391 62.6837 79.391 62.471C79.391 62.317 79.3397 62.1923 79.237 62.097C79.1344 61.9943 78.94 61.91 78.654 61.844L77.752 61.635C77.136 61.503 76.6777 61.2977 76.377 61.019C76.0837 60.733 75.937 60.3773 75.937 59.952C75.937 59.4313 76.135 59.0243 76.531 58.731C76.9344 58.4303 77.488 58.28 78.192 58.28C78.8887 58.28 79.446 58.4303 79.864 58.731C80.2894 59.0243 80.524 59.4313 80.568 59.952H79.303C79.2664 59.7247 79.149 59.5523 78.951 59.435C78.7604 59.3177 78.4964 59.259 78.159 59.259C77.8437 59.259 77.6054 59.3103 77.444 59.413C77.2827 59.5083 77.202 59.6513 77.202 59.842C77.202 59.9887 77.2644 60.1133 77.389 60.216C77.5137 60.3113 77.7227 60.3957 78.016 60.469L78.984 60.689C79.534 60.8137 79.9484 61.03 80.227 61.338C80.513 61.646 80.656 62.009 80.656 62.427C80.656 62.9623 80.4507 63.3767 80.04 63.67C79.6294 63.9633 79.0537 64.11 78.313 64.11ZM81.6036 64V56.08H82.9896V64H81.6036ZM85.5416 64V60.458C85.5416 60.1133 85.4536 59.853 85.2776 59.677C85.1016 59.501 84.8449 59.413 84.5076 59.413C84.2142 59.413 83.9502 59.479 83.7156 59.611C83.4882 59.743 83.3086 59.9263 83.1766 60.161C83.0519 60.3957 82.9896 60.667 82.9896 60.975L82.8466 59.633C83.0372 59.2223 83.3159 58.896 83.6826 58.654C84.0492 58.4047 84.4892 58.28 85.0026 58.28C85.6112 58.28 86.0842 58.4523 86.4216 58.797C86.7662 59.1417 86.9386 59.6 86.9386 60.172V64H85.5416ZM88.296 64V58.39H89.682V64H88.296ZM88.23 57.466V55.937H89.737V57.466H88.23ZM94.3544 64.11C93.819 64.11 93.3827 63.9853 93.0454 63.736C92.7154 63.4793 92.51 63.1273 92.4294 62.68L92.5394 62.669V66.255H91.1534V58.39H92.5064V59.655L92.3964 59.633C92.499 59.215 92.7337 58.885 93.1004 58.643C93.467 58.401 93.9144 58.28 94.4424 58.28C94.941 58.28 95.3737 58.401 95.7404 58.643C96.1144 58.8777 96.404 59.2113 96.6094 59.644C96.8147 60.0767 96.9174 60.5863 96.9174 61.173C96.9174 61.767 96.811 62.284 96.5984 62.724C96.3857 63.164 96.0887 63.505 95.7074 63.747C95.326 63.989 94.875 64.11 94.3544 64.11ZM94.0024 62.966C94.4497 62.966 94.8054 62.812 95.0694 62.504C95.3334 62.1887 95.4654 61.7487 95.4654 61.184C95.4654 60.6193 95.3297 60.183 95.0584 59.875C94.7944 59.567 94.4387 59.413 93.9914 59.413C93.5514 59.413 93.1957 59.5707 92.9244 59.886C92.653 60.194 92.5174 60.6303 92.5174 61.195C92.5174 61.7597 92.653 62.196 92.9244 62.504C93.1957 62.812 93.555 62.966 94.0024 62.966Z" fill="#A1A1A1"/>
</g>
<defs>
<filter id="filter0_d_246_86" x="0" y="1.81653" width="128.23" height="110.367" filterUnits="userSpaceOnUse" color-interpolation-filters="sRGB">
<feFlood flood-opacity="0" result="BackgroundImageFix"/>
<feColorMatrix in="SourceAlpha" type="matrix" values="0 0 0 0 0 0 0 0 0 0 0 0 0 0 0 0 0 0 127 0" result="hardAlpha"/>
<feOffset dy="4"/>
<feGaussianBlur stdDeviation="2"/>
<feComposite in2="hardAlpha" operator="out"/>
<feColorMatrix type="matrix" values="0 0 0 0 0 0 0 0 0 0 0 0 0 0 0 0 0 0 0.25 0"/>
<feBlend mode="normal" in2="BackgroundImageFix" result="effect1_dropShadow_246_86"/>
<feBlend mode="normal" in="SourceGraphic" in2="effect1_dropShadow_246_86" result="shape"/>
</filter>
</defs>
</svg>
